<svg id="graphic-design-icon" xmlns="http://www.w3.org/2000/svg" width="140.117" height="72.51" viewBox="0 0 140.117 72.51">
  <path id="Path_3" data-name="Path 3" d="M2.9,66.729H17.252a2.494,2.494,0,0,1-1.859-2.395V2.474A2.487,2.487,0,0,1,17.868,0H121.6a2.479,2.479,0,0,1,2.474,2.474V64.323a2.471,2.471,0,0,1-1.859,2.395h15.006a2.9,2.9,0,0,1,2.9,2.9h0a2.9,2.9,0,0,1-2.9,2.9H2.9a2.9,2.9,0,0,1-2.9-2.9H0a2.9,2.9,0,0,1,2.9-2.885Zm46.569-3.1.251-35.406.468-.958L57,13.273l.582-1.2.616,1.186,7.252,13.991.5.981.228,35.406h12.6L81.86,32.293l6.192.365,1.095,30.981h30.046V4.858H20.6v58.77Zm9.67-45.668H56.216l-4.344,8.928H63.764l-4.63-8.928ZM85.11,30.308c-5.04-.251-7.047-2.281-6.123-5.952.217-.867,1.528-4.3.9-7.275-.616-2.919-3.273-5.428-3.2-5.519,4.755,3.181,23.011,17.857,8.427,18.746Zm-19.122,37.5h8.142A1.4,1.4,0,0,1,75.52,69.2h0a1.4,1.4,0,0,1-1.391,1.391H65.988A1.4,1.4,0,0,1,64.6,69.2h0a1.389,1.389,0,0,1,1.391-1.391Z" fill="#ff0092" fill-rule="evenodd"/>
</svg>
