<svg id="software-development-icon" xmlns="http://www.w3.org/2000/svg" width="115.174" height="95.51" viewBox="0 0 115.174 95.51">
  <path id="Path_2" data-name="Path 2" d="M3.131,0H112.044a3.136,3.136,0,0,1,3.131,3.131V75.283a3.136,3.136,0,0,1-3.131,3.131H3.131A3.136,3.136,0,0,1,0,75.283V3.131A3.136,3.136,0,0,1,3.131,0ZM76.577,63.483l-15.053-9.12V48.58l15.053-9.12v6.87l-9.148,5.155,9.148,5.155v6.842Zm9.345,0,15.053-9.12V48.58L85.921,39.46v6.87l9.148,5.155-9.148,5.155v6.842Zm-49.7-22.261,3.59,3.59a2.427,2.427,0,0,1,0,3.43L36.92,51.129a19.162,19.162,0,0,1,1.79,4.78h3.74a2.44,2.44,0,0,1,2.428,2.428v5.071a2.44,2.44,0,0,1-2.428,2.428H38.363a19,19,0,0,1-1.415,3.43h70.775a2.776,2.776,0,0,0,2.765-2.765V7.676a2.77,2.77,0,0,0-2.765-2.765H7.461A2.764,2.764,0,0,0,4.7,7.676v32.44a2.422,2.422,0,0,1,3.206.2L10.788,43.2a19.162,19.162,0,0,1,4.78-1.79V37.67A2.432,2.432,0,0,1,18,35.252h5.071a2.44,2.44,0,0,1,2.428,2.428v4.077a19.288,19.288,0,0,1,4.64,2.118l2.643-2.653a2.438,2.438,0,0,1,3.44,0Zm-16.328,7.8a11.206,11.206,0,0,1,6.617,20.245H13.272A11.206,11.206,0,0,1,19.889,49.02Zm-7.1-26.291h7.189a1.016,1.016,0,0,1,1,1v2.043a1.023,1.023,0,0,1-1,1H12.794a1.01,1.01,0,0,1-1-1V23.732a.992.992,0,0,1,1-1ZM24.7,12.3H52.516a1.01,1.01,0,0,1,1,1v2.043a1.01,1.01,0,0,1-1,1H24.7a1,1,0,0,1-1-1V13.3a1,1,0,0,1,1-1Zm-11.9,0h7.189a1,1,0,0,1,1,1v2.043a1,1,0,0,1-1,1H12.794a1,1,0,0,1-1-1V13.3a.992.992,0,0,1,1-1Zm23.16,10.432H82.116a1.016,1.016,0,0,1,1,1v2.043a1.029,1.029,0,0,1-1,1H35.954a1.01,1.01,0,0,1-1-1V23.732a1,1,0,0,1,1-1Zm-11.388,0h7.189a1.016,1.016,0,0,1,1,1v2.043a1.023,1.023,0,0,1-1,1H24.566a1.01,1.01,0,0,1-1-1V23.732a1,1,0,0,1,1-1ZM43.387,82.735h28.4c.075,4.911,2.1,9.307,7.583,12.775H35.8c4.387-3.177,7.6-7.039,7.583-12.775Z" fill="#ff0092" fill-rule="evenodd"/>
</svg>
