<svg id="website-ui-ux-icon" xmlns="http://www.w3.org/2000/svg" width="122.88" height="95.51" viewBox="0 0 122.88 95.51">
  <path id="Path_1" data-name="Path 1" d="M8.32,0H114.56a8.339,8.339,0,0,1,8.32,8.32V87.19a8.346,8.346,0,0,1-8.32,8.32H8.32A8.339,8.339,0,0,1,0,87.19V8.32A8.339,8.339,0,0,1,8.32,0ZM12.6,26.95h96.77V68.03H12.6V26.95ZM32.21,38.67h5.98V51.11a11.089,11.089,0,0,1-.54,3.49,7.706,7.706,0,0,1-1.68,2.88,6.63,6.63,0,0,1-2.4,1.73,11.372,11.372,0,0,1-4.19.7,25.054,25.054,0,0,1-3.09-.21,7.509,7.509,0,0,1-2.8-.85,7.02,7.02,0,0,1-2.05-1.8,6.806,6.806,0,0,1-1.28-2.41,13.359,13.359,0,0,1-.56-3.53V38.67h5.98V51.41a3.746,3.746,0,0,0,.88,2.66,3.149,3.149,0,0,0,2.44.96,3.163,3.163,0,0,0,2.42-.95,3.811,3.811,0,0,0,.88-2.68V38.67Zm10.18,0H48.4V59.56H42.39V38.67Zm13.2-.35h2.72L53.42,59.91H50.7l4.89-21.59Zm17.23.35H78.8V51.11a11.089,11.089,0,0,1-.54,3.49,7.706,7.706,0,0,1-1.68,2.88,6.63,6.63,0,0,1-2.4,1.73,11.372,11.372,0,0,1-4.19.7,25.054,25.054,0,0,1-3.09-.21,7.509,7.509,0,0,1-2.8-.85,7.02,7.02,0,0,1-2.05-1.8,6.806,6.806,0,0,1-1.28-2.41,13.307,13.307,0,0,1-.55-3.53V38.67H66.2V51.41a3.746,3.746,0,0,0,.88,2.66,3.569,3.569,0,0,0,4.86.01,3.811,3.811,0,0,0,.88-2.68V38.67Zm8.61,0h6.61l3.43,6.43,3.33-6.43h6.52L95.3,48.79l6.59,10.77H95.15l-3.8-6.71-3.83,6.71H80.83l6.68-10.89-6.08-10ZM66.87,83.68a3.512,3.512,0,0,1,0-7h39.65a3.512,3.512,0,0,1,0,7Zm-51.91,0a3.515,3.515,0,0,1,0-7H51.72a3.515,3.515,0,0,1,0,7ZM117.97,20.1H5.29V88a2.288,2.288,0,0,0,2.3,2.3H115.63a2.3,2.3,0,0,0,1.63-.67,2.257,2.257,0,0,0,.67-1.63V20.1ZM106.64,6.16a4.11,4.11,0,1,1-4.11,4.11,4.11,4.11,0,0,1,4.11-4.11Zm-27.84,0a4.11,4.11,0,1,1-4.11,4.11A4.11,4.11,0,0,1,78.8,6.16Zm13.92,0a4.11,4.11,0,1,1-4.11,4.11,4.11,4.11,0,0,1,4.11-4.11Z" fill="#ff0092" fill-rule="evenodd"/>
</svg>
